<mxfile host="app.diagrams.net" modified="2023-08-03T07:29:57.968Z" agent="Mozilla/5.0 (Macintosh; Intel Mac OS X 10_15_7) AppleWebKit/537.36 (KHTML, like Gecko) Chrome/114.0.0.0 Safari/537.36" version="21.6.6" etag="cuG27_DckZTgt30RPcjz" type="github">
  <diagram name="第 1 页" id="dqJAxEEwssEo_oXm_R5Y">
    <mxGraphModel>
      <root>
        <mxCell id="0" />
        <mxCell id="1" parent="0" />
      </root>
    </mxGraphModel>
  </diagram>
</mxfile>
